#!OML:ASF E:\Steps\Project 1\Capture day 1\Session 2\Subject.ASF
:FULLY-SPECIFIED
:DEGREES
273
root 9.06289 12.7837 29.3565 -129.352 4.0889 180.245
lowerback 2.24621 -0.829961 -3.26215
upperback -1.2544 -1.19724 -1.31806
thorax -2.50931 -0.531608 0.524902
lowerneck 2.84757 -10.9028 1.45808
upperneck -29.8774 -10.4712 10.0955
head -9.36167 -4.85657 3.93279
rclavicle 3.33958e-014 2.70347e-014
rhumerus -6.85297 6.46185 -87.6104
rradius 68.0868
rwrist -18.1729
rhand -14.0233 -57.0788
rfingers 7.12502
rthumb 12.1066 -86.7086
lclavicle 3.33958e-014 2.70347e-014
lhumerus -6.25923 -21.1172 76.2757
lradius 57.2847
lwrist 8.54856
lhand -34.443 -20.7719
lfingers 7.12502
lthumb -7.60717 9.07125
rfemur -82.6082 10.1972 16.7419
rtibia 85.859
rfoot -45.0658 -11.7375
rtoes -36.8109
lfemur -83.3122 -3.81723 -19.4455
ltibia 89.2327
lfoot -33.5153 -0.293245
ltoes -35.5505
274
root 9.07237 12.9294 29.1639 -130.156 4.11699 180.077
lowerback 1.70357 -0.909345 -3.32417
upperback -1.58788 -1.28112 -1.33232
thorax -2.54355 -0.564812 0.541681
lowerneck 3.06311 -10.6887 1.52013
upperneck -29.3188 -10.3879 9.56373
head -9.2457 -4.8304 3.72879
rclavicle -9.93923e-015 -1.90833e-014
rhumerus -5.06952 7.97093 -86.4563
rradius 73.2733
rwrist -17.6194
rhand -9.41863 -49.7799
rfingers 7.12502
rthumb 16.5434 -79.0947
lclavicle -9.93923e-015 -1.90833e-014
lhumerus -3.54286 -23.0546 74.0159
lradius 60.5845
lwrist 7.66885
lhand -34.4558 -19.7358
lfingers 7.12502
lthumb -7.61949 10.1069
rfemur -80.1938 10.0791 16.9774
rtibia 84.7799
rfoot -44.0928 -11.3396
rtoes -35.8537
lfemur -80.8082 -3.88634 -19.7053
ltibia 87.8476
lfoot -32.3988 0.558643
ltoes -38.3362
275
root 9.08035 13.0845 28.9618 -130.782 4.15201 179.962
lowerback 0.877378 -0.968242 -3.40105
upperback -1.78781 -1.31959 -1.28116
thorax -2.28009 -0.580453 0.625419
lowerneck 2.45375 -10.4116 1.77512
upperneck -28.6867 -10.1655 8.91257
head -8.98021 -4.69931 3.38934
rclavicle 9.54166e-015 1.27222e-014
rhumerus -2.9462 9.2885 -84.8397
rradius 78.2034
rwrist -17.0162
rhand -13.2796 -51.3908
rfingers 7.12502
rthumb 12.8237 -80.9769
lclavicle 9.54166e-015 1.27222e-014
lhumerus -0.273026 -24.3315 71.3703
lradius 63.928
lwrist 7.71479
lhand -34.5113 -19.3646
lfingers 7.12502
lthumb -7.67311 10.4762
rfemur -77.8366 9.88208 17.2065
rtibia 83.3918
rfoot -42.978 -10.687
rtoes -35.2851
lfemur -78.3865 -3.91521 -19.8765
ltibia 86.3577
lfoot -31.1121 0.839939
ltoes -39.2415
276
root 9.08468 13.2503 28.7497 -131.233 4.24843 179.835
lowerback -0.253058 -0.961415 -3.47584
upperback -1.90822 -1.2504 -1.26206
thorax -1.76863 -0.546237 0.666563
lowerneck 1.62268 -10.1985 1.83062
upperneck -27.9796 -9.98676 8.56212
head -8.61304 -4.5883 3.1718
rclavicle -3.18055e-015 8.34896e-015
rhumerus -0.361366 10.2281 -82.7386
rradius 82.6646
rwrist -16.3227
rhand -13.1449 -49.2734
rfingers 7.12502
rthumb 12.9535 -78.8513
lclavicle -3.18055e-015 8.34896e-015
lhumerus 3.2335 -25.3499 68.3577
lradius 67.1176
lwrist 7.46571
lhand -35.4183 -20.0963
lfingers 7.12502
lthumb -8.54849 9.71063
rfemur -75.6359 9.50642 17.4908
rtibia 81.5732
rfoot -41.0472 -11.5401
rtoes -37.7568
lfemur -76.2163 -3.90048 -20.1355
ltibia 84.7729
lfoot -29.4594 1.38473
ltoes -39.5907
277
root 9.08827 13.4293 28.5237 -131.692 4.37383 179.727
lowerback -1.41534 -0.951401 -3.5735
upperback -2.07647 -1.17142 -1.20959
thorax -1.28893 -0.504234 0.756462
lowerneck 1.25243 -10.017 1.74868
upperneck -27.4857 -9.84137 8.30884
head -8.38917 -4.50208 3.05078
rclavicle -7.55382e-015 -3.69739e-014
rhumerus 2.44435 10.7512 -80.4405
rradius 86.2958
rwrist -16.1084
rhand -13.6746 -52.3125
rfingers 7.12502
rthumb 12.4428 -81.9221
lclavicle -7.55382e-015 -3.69739e-014
lhumerus 6.40872 -25.8325 65.2383
lradius 70.2283
lwrist 7.3921
lhand -35.1198 -20.5573
lfingers 7.12502
lthumb -8.26044 9.26116
rfemur -73.3729 9.18286 17.7222
rtibia 79.6774
rfoot -38.8114 -12.5275
rtoes -40.3261
lfemur -73.8542 -3.85127 -20.4374
ltibia 82.8481
lfoot -27.7038 2.08199
ltoes -40.5618
